<svg width="62" height="58" viewBox="0 0 62 58" fill="none" xmlns="http://www.w3.org/2000/svg">
<path d="M0 9.0625C0 8.06148 0.867448 7.25 1.9375 7.25H7.75C8.63906 7.25 9.41402 7.81604 9.62965 8.6229L11.2003 14.5H56.1875C56.7841 14.5 57.3475 14.7571 57.7146 15.1971C58.0818 15.637 58.2119 16.2106 58.0672 16.7521L52.2547 38.5021C52.039 39.309 51.2641 39.875 50.375 39.875H15.5C14.6109 39.875 13.836 39.309 13.6203 38.5021L6.23725 10.875H1.9375C0.867448 10.875 0 10.0635 0 9.0625ZM12.169 18.125L14.1065 25.375H19.375V18.125H12.169ZM23.25 18.125V25.375H31V18.125H23.25ZM34.875 18.125V25.375H42.625V18.125H34.875ZM46.5 18.125V25.375H51.7685L53.706 18.125H46.5ZM50.7997 29H46.5V36.25H48.8622L50.7997 29ZM42.625 29H34.875V36.25H42.625V29ZM31 29H23.25V36.25H31V29ZM19.375 29H15.0753L17.0128 36.25H19.375V29ZM19.375 47.125C17.2349 47.125 15.5 48.748 15.5 50.75C15.5 52.752 17.2349 54.375 19.375 54.375C21.5151 54.375 23.25 52.752 23.25 50.75C23.25 48.748 21.5151 47.125 19.375 47.125ZM11.625 50.75C11.625 46.7459 15.0948 43.5 19.375 43.5C23.6552 43.5 27.125 46.7459 27.125 50.75C27.125 54.7541 23.6552 58 19.375 58C15.0948 58 11.625 54.7541 11.625 50.75ZM46.5 47.125C44.3599 47.125 42.625 48.748 42.625 50.75C42.625 52.752 44.3599 54.375 46.5 54.375C48.6401 54.375 50.375 52.752 50.375 50.75C50.375 48.748 48.6401 47.125 46.5 47.125ZM38.75 50.75C38.75 46.7459 42.2198 43.5 46.5 43.5C50.7802 43.5 54.25 46.7459 54.25 50.75C54.25 54.7541 50.7802 58 46.5 58C42.2198 58 38.75 54.7541 38.75 50.75Z" fill="black"/>
</svg>
